<svg version="1.1" preserveAspectRatio="none" xmlns="http://www.w3.org/2000/svg" width="500" height="500" viewBox="0 0 500 500"><rect width="100%" height="100%" fill="#FFFFFF" fill-opacity="1"/><svg viewBox="-34.742 96.8 402.8173 158.4" width="333" height="130.94571658168604" x="83.5px" y="184.5271px" xmlns="http://www.w3.org/2000/svg" xmlns:xlink="http://www.w3.org/1999/xlink" preserveAspectRatio="none"><defs></defs><style>.companyName {fill:#101010;fill-opacity:1;}.icon3-str {stroke:#ED4545;stroke-opacity:1;}.shape {fill:#F4FF69;fill-opacity:1;}.shapeStroke-str {stroke:#101010;stroke-opacity:1;}.text {fill:#101010;fill-opacity:1;}</style><g opacity="1" transform="rotate(0 -34.742 96.8)">
<svg width="402.8173" height="96" x="-34.742" y="96.8" version="1.1" preserveAspectRatio="none" viewBox="0 0 402.8173 96">
  <defs><rect x="0" y="0" width="402.8173" height="96" rx="0px" ry="0px" id="id-eGTWkAZcd1734990398161"></rect></defs><use class="shape shapeStroke-str" style="stroke-width:0;" xlink:href="#id-eGTWkAZcd1734990398161"></use>
</svg>
</g><g opacity="1" transform="rotate(0 -29.9589 224.8)">
<svg width="393.2511" height="30.4" x="-29.9589" y="224.8" version="1.1" preserveAspectRatio="none" viewBox="1.84 -29.88 389.00000000000006 30.08">
  <g transform="matrix(1 0 0 1 0 0)" class="text"><path id="id-6izo4zJp18" d="M12.68 0.20Q9.56 0.20 7.10-1.16Q4.64-2.52 3.24-4.98Q1.84-7.44 1.84-10.52L1.84-10.52Q1.84-13.60 3.24-16.04Q4.64-18.48 7.10-19.84Q9.56-21.20 12.68-21.20L12.68-21.20Q15.40-21.20 17.54-20.14Q19.68-19.08 20.92-17.04L20.92-17.04L18.80-15.60Q17.76-17.16 16.16-17.94Q14.56-18.72 12.68-18.72L12.68-18.72Q10.40-18.72 8.58-17.70Q6.76-16.68 5.74-14.80Q4.72-12.92 4.72-10.52L4.72-10.52Q4.72-8.08 5.74-6.22Q6.76-4.36 8.58-3.34Q10.40-2.32 12.68-2.32L12.68-2.32Q14.56-2.32 16.16-3.08Q17.76-3.84 18.80-5.40L18.80-5.40L20.92-3.96Q19.68-1.92 17.52-0.86Q15.36 0.20 12.68 0.20L12.68 0.20Z M36.72 0.20Q33.68 0.20 31.24-1.18Q28.80-2.56 27.40-5Q26-7.44 26-10.52L26-10.52Q26-13.60 27.40-16.04Q28.80-18.48 31.24-19.84Q33.68-21.20 36.72-21.20L36.72-21.20Q39.76-21.20 42.20-19.84Q44.64-18.48 46.02-16.04Q47.40-13.60 47.40-10.52L47.40-10.52Q47.40-7.44 46.02-5Q44.64-2.56 42.20-1.18Q39.76 0.20 36.72 0.20L36.72 0.20ZM36.72-2.32Q38.96-2.32 40.74-3.34Q42.52-4.36 43.52-6.24Q44.52-8.12 44.52-10.52L44.52-10.52Q44.52-12.92 43.52-14.80Q42.52-16.68 40.74-17.70Q38.96-18.72 36.72-18.72L36.72-18.72Q34.48-18.72 32.70-17.70Q30.92-16.68 29.90-14.80Q28.88-12.92 28.88-10.52L28.88-10.52Q28.88-8.12 29.90-6.24Q30.92-4.36 32.70-3.34Q34.48-2.32 36.72-2.32L36.72-2.32Z M55.20 0L55.20-29.68L58.04-29.68L58.04 0L55.20 0Z M76.56 0.20Q73.52 0.20 71.08-1.18Q68.64-2.56 67.24-5Q65.84-7.44 65.84-10.52L65.84-10.52Q65.84-13.60 67.24-16.04Q68.64-18.48 71.08-19.84Q73.52-21.20 76.56-21.20L76.56-21.20Q79.60-21.20 82.04-19.84Q84.48-18.48 85.86-16.04Q87.24-13.60 87.24-10.52L87.24-10.52Q87.24-7.44 85.86-5Q84.48-2.56 82.04-1.18Q79.60 0.20 76.56 0.20L76.56 0.20ZM76.56-2.32Q78.80-2.32 80.58-3.34Q82.36-4.36 83.36-6.24Q84.36-8.12 84.36-10.52L84.36-10.52Q84.36-12.92 83.36-14.80Q82.36-16.68 80.58-17.70Q78.80-18.72 76.56-18.72L76.56-18.72Q74.32-18.72 72.54-17.70Q70.76-16.68 69.74-14.80Q68.72-12.92 68.72-10.52L68.72-10.52Q68.72-8.12 69.74-6.24Q70.76-4.36 72.54-3.34Q74.32-2.32 76.56-2.32L76.56-2.32Z M111.16-21.04L114-21.04L114 0L111.28 0L111.28-3.84Q110.16-1.92 108.20-0.86Q106.24 0.20 103.72 0.20L103.72 0.20Q99.60 0.20 97.22-2.10Q94.84-4.40 94.84-8.84L94.84-8.84L94.84-21.04L97.68-21.04L97.68-9.12Q97.68-5.80 99.32-4.08Q100.96-2.36 104-2.36L104-2.36Q107.32-2.36 109.24-4.38Q111.16-6.40 111.16-10L111.16-10L111.16-21.04Z M126.68-16.92Q127.68-19.04 129.66-20.12Q131.64-21.20 134.56-21.20L134.56-21.20L134.56-18.44L133.88-18.48Q130.56-18.48 128.68-16.44Q126.80-14.40 126.80-10.72L126.80-10.72L126.80 0L123.96 0L123.96-21.04L126.68-21.04L126.68-16.92Z M147.48 0.20Q144.92 0.20 142.58-0.54Q140.24-1.28 138.92-2.40L138.92-2.40L140.20-4.64Q141.52-3.60 143.52-2.94Q145.52-2.28 147.68-2.28L147.68-2.28Q150.56-2.28 151.94-3.18Q153.32-4.08 153.32-5.72L153.32-5.72Q153.32-6.88 152.56-7.54Q151.80-8.20 150.64-8.54Q149.48-8.88 147.56-9.20L147.56-9.20Q145-9.68 143.44-10.18Q141.88-10.68 140.78-11.88Q139.68-13.08 139.68-15.20L139.68-15.20Q139.68-17.84 141.88-19.52Q144.08-21.20 148-21.20L148-21.20Q150.04-21.20 152.08-20.66Q154.12-20.12 155.44-19.24L155.44-19.24L154.20-16.96Q151.60-18.76 148-18.76L148-18.76Q145.28-18.76 143.90-17.80Q142.52-16.84 142.52-15.28L142.52-15.28Q142.52-14.08 143.30-13.36Q144.08-12.64 145.24-12.30Q146.40-11.96 148.44-11.60L148.44-11.60Q150.96-11.12 152.48-10.64Q154-10.16 155.08-9Q156.16-7.84 156.16-5.80L156.16-5.80Q156.16-3.04 153.86-1.42Q151.56 0.20 147.48 0.20L147.48 0.20Z M184.48 0.20Q181.44 0.20 179-1.18Q176.56-2.56 175.16-5Q173.76-7.44 173.76-10.52L173.76-10.52Q173.76-13.60 175.16-16.04Q176.56-18.48 179-19.84Q181.44-21.20 184.48-21.20L184.48-21.20Q187.52-21.20 189.96-19.84Q192.40-18.48 193.78-16.04Q195.16-13.60 195.16-10.52L195.16-10.52Q195.16-7.44 193.78-5Q192.40-2.56 189.96-1.18Q187.52 0.20 184.48 0.20L184.48 0.20ZM184.48-2.32Q186.72-2.32 188.50-3.34Q190.28-4.36 191.28-6.24Q192.28-8.12 192.28-10.52L192.28-10.52Q192.28-12.92 191.28-14.80Q190.28-16.68 188.50-17.70Q186.72-18.72 184.48-18.72L184.48-18.72Q182.24-18.72 180.46-17.70Q178.68-16.68 177.66-14.80Q176.64-12.92 176.64-10.52L176.64-10.52Q176.64-8.12 177.66-6.24Q178.68-4.36 180.46-3.34Q182.24-2.32 184.48-2.32L184.48-2.32Z M209.92-27.48Q208.08-27.48 207.14-26.48Q206.20-25.48 206.20-23.52L206.20-23.52L206.20-21.04L212.68-21.04L212.68-18.64L206.28-18.64L206.28 0L203.44 0L203.44-18.64L199.68-18.64L199.68-21.04L203.44-21.04L203.44-23.64Q203.44-26.52 205.10-28.20Q206.76-29.88 209.80-29.88L209.80-29.88Q211-29.88 212.12-29.54Q213.24-29.20 214-28.56L214-28.56L213.04-26.44Q211.80-27.48 209.92-27.48L209.92-27.48Z M241.72-21.20Q245.68-21.20 248.02-18.90Q250.36-16.60 250.36-12.20L250.36-12.20L250.36 0L247.52 0L247.52-11.92Q247.52-15.20 245.88-16.92Q244.24-18.64 241.20-18.64L241.20-18.64Q237.80-18.64 235.82-16.62Q233.84-14.60 233.84-11.04L233.84-11.04L233.84 0L231 0L231-21.04L233.72-21.04L233.72-17.16Q234.88-19.08 236.94-20.14Q239-21.20 241.72-21.20L241.72-21.20Z M267.44-21.20Q271.56-21.20 273.76-19.14Q275.96-17.08 275.96-13.04L275.96-13.04L275.96 0L273.24 0L273.24-3.28Q272.28-1.64 270.42-0.72Q268.56 0.20 266 0.20L266 0.20Q262.48 0.20 260.40-1.48Q258.32-3.16 258.32-5.92L258.32-5.92Q258.32-8.60 260.26-10.24Q262.20-11.88 266.44-11.88L266.44-11.88L273.12-11.88L273.12-13.16Q273.12-15.88 271.60-17.30Q270.08-18.72 267.16-18.72L267.16-18.72Q265.16-18.72 263.32-18.06Q261.48-17.40 260.16-16.24L260.16-16.24L258.88-18.36Q260.48-19.72 262.72-20.46Q264.96-21.20 267.44-21.20L267.44-21.20ZM266.44-2.04Q268.84-2.04 270.56-3.14Q272.28-4.24 273.12-6.32L273.12-6.32L273.12-9.76L266.52-9.76Q261.12-9.76 261.12-6L261.12-6Q261.12-4.16 262.52-3.10Q263.92-2.04 266.44-2.04L266.44-2.04Z M295.76-3.32L296.76-1.28Q295.96-0.56 294.78-0.18Q293.60 0.20 292.32 0.20L292.32 0.20Q289.36 0.20 287.76-1.40Q286.16-3 286.16-5.92L286.16-5.92L286.16-18.64L282.40-18.64L282.40-21.04L286.16-21.04L286.16-25.64L289-25.64L289-21.04L295.40-21.04L295.40-18.64L289-18.64L289-6.08Q289-4.20 289.94-3.22Q290.88-2.24 292.64-2.24L292.64-2.24Q293.52-2.24 294.34-2.52Q295.16-2.80 295.76-3.32L295.76-3.32Z M320.04-21.04L322.88-21.04L322.88 0L320.16 0L320.16-3.84Q319.04-1.92 317.08-0.86Q315.12 0.20 312.60 0.20L312.60 0.20Q308.48 0.20 306.10-2.10Q303.72-4.40 303.72-8.84L303.72-8.84L303.72-21.04L306.56-21.04L306.56-9.12Q306.56-5.80 308.20-4.08Q309.84-2.36 312.88-2.36L312.88-2.36Q316.20-2.36 318.12-4.38Q320.04-6.40 320.04-10L320.04-10L320.04-21.04Z M335.56-16.92Q336.56-19.04 338.54-20.12Q340.52-21.20 343.44-21.20L343.44-21.20L343.44-18.44L342.76-18.48Q339.44-18.48 337.56-16.44Q335.68-14.40 335.68-10.72L335.68-10.72L335.68 0L332.84 0L332.84-21.04L335.56-21.04L335.56-16.92Z M368.72-10.52L368.68-9.64L351.08-9.64Q351.32-6.36 353.60-4.34Q355.88-2.32 359.36-2.32L359.36-2.32Q361.32-2.32 362.96-3.02Q364.60-3.72 365.80-5.08L365.80-5.08L367.40-3.24Q366.00-1.56 363.90-0.68Q361.80 0.20 359.28 0.20L359.28 0.20Q356.04 0.20 353.54-1.18Q351.04-2.56 349.64-5Q348.24-7.44 348.24-10.52L348.24-10.52Q348.24-13.60 349.58-16.04Q350.92-18.48 353.26-19.84Q355.60-21.20 358.52-21.20L358.52-21.20Q361.44-21.20 363.76-19.84Q366.08-18.48 367.40-16.06Q368.72-13.64 368.72-10.52L368.72-10.52ZM358.52-18.76Q355.48-18.76 353.42-16.82Q351.36-14.88 351.08-11.76L351.08-11.76L366.00-11.76Q365.72-14.88 363.66-16.82Q361.60-18.76 358.52-18.76L358.52-18.76Z M382.16 0.20Q379.60 0.20 377.26-0.54Q374.92-1.28 373.60-2.40L373.60-2.40L374.88-4.64Q376.20-3.60 378.20-2.94Q380.20-2.28 382.36-2.28L382.36-2.28Q385.24-2.28 386.62-3.18Q388.00-4.08 388.00-5.72L388.00-5.72Q388.00-6.88 387.24-7.54Q386.48-8.20 385.32-8.54Q384.16-8.88 382.24-9.20L382.24-9.20Q379.68-9.68 378.12-10.18Q376.56-10.68 375.46-11.88Q374.36-13.08 374.36-15.20L374.36-15.20Q374.36-17.84 376.56-19.52Q378.76-21.20 382.68-21.20L382.68-21.20Q384.72-21.20 386.76-20.66Q388.80-20.12 390.12-19.24L390.12-19.24L388.88-16.96Q386.28-18.76 382.68-18.76L382.68-18.76Q379.96-18.76 378.58-17.80Q377.20-16.84 377.20-15.28L377.20-15.28Q377.20-14.08 377.98-13.36Q378.76-12.64 379.92-12.30Q381.08-11.96 383.12-11.60L383.12-11.60Q385.64-11.12 387.16-10.64Q388.68-10.16 389.76-9Q390.84-7.84 390.84-5.80L390.84-5.80Q390.84-3.04 388.54-1.42Q386.24 0.20 382.16 0.20L382.16 0.20Z"/></g>
</svg>
</g><g opacity="1" transform="rotate(0 -24.742 104.8)">
<svg width="382.8173" height="80" x="-24.742" y="104.8" version="1.1" preserveAspectRatio="none" viewBox="2.8 -32.72 158.48000000000002 33.12">
  <g transform="matrix(1 0 0 1 0 0)" class="companyName"><path id="id-D6z1nYkh8" d="M2.80 0L2.80-32.40L5.88-32.40L5.88-18.04L16.08-18.04L16.08-32.40L19.12-32.40L19.12 0L16.08 0L16.08-15.76L5.88-15.76L5.88 0L2.80 0Z M25.04 0L31.88-32.40L35.08-32.40L41.96 0L38.96 0L37.36-8.68L29.64-8.68L28 0L25.04 0ZM30.08-10.88L36.96-10.88L33.52-28.36L30.08-10.88Z M54.76 0.40Q50.96 0.40 48.96-1.94Q46.96-4.28 46.68-8.40L46.68-8.40L49.36-9.20Q49.72-5.76 50.90-3.92Q52.08-2.08 54.80-2.08L54.80-2.08Q59.36-2.08 59.36-6.76L59.36-6.76Q59.36-8.76 58.42-10.28Q57.48-11.80 55.40-13.76L55.40-13.76L49.68-19.24Q48.12-20.68 47.42-22.26Q46.72-23.84 46.72-25.76L46.72-25.76Q46.72-29.08 48.70-30.90Q50.68-32.72 54.04-32.72L54.04-32.72Q57.64-32.72 59.56-30.80Q61.48-28.88 61.80-24.52L61.80-24.52L59.20-23.84Q58.96-27.12 57.82-28.72Q56.68-30.32 54.04-30.32L54.04-30.32Q51.96-30.32 50.72-29.24Q49.48-28.16 49.48-26.04L49.48-26.04Q49.48-24.68 50.00-23.60Q50.52-22.52 51.76-21.32L51.76-21.32L57.48-15.92Q59.68-13.84 60.94-11.66Q62.20-9.48 62.20-6.96L62.20-6.96Q62.20-3.44 60.16-1.52Q58.12 0.40 54.76 0.40L54.76 0.40Z M72.28 0L72.28-30.04L66.16-30.04L66.16-32.40L81.28-32.40L81.28-30.04L75.32-30.04L75.32 0L72.28 0Z M86.80 0L86.80-32.40L89.88-32.40L89.88-15.28L98.52-32.40L101.44-32.40L94.80-18.48L102.88 0L99.88 0L92.76-16.20L89.88-10.92L89.88 0L86.80 0Z M106.00 0L112.84-32.40L116.04-32.40L122.92 0L119.92 0L118.32-8.68L110.60-8.68L108.96 0L106.00 0ZM111.04-10.88L117.92-10.88L114.48-28.36L111.04-10.88Z M128.84 0L128.84-32.40L131.88-32.40L131.88-2.28L141.08-2.28L141.08 0L128.84 0Z M144.36 0L151.20-32.40L154.40-32.40L161.28 0L158.28 0L156.68-8.68L148.96-8.68L147.32 0L144.36 0ZM149.40-10.88L156.28-10.88L152.84-28.36L149.40-10.88Z"/></g>
</svg>
</g></svg></svg>